<svg width="16" height="15" viewBox="0 0 16 15" fill="none" xmlns="http://www.w3.org/2000/svg">
<path fill-rule="evenodd" clip-rule="evenodd" d="M5.91599 0.197357C3.13894 0.197357 0.887695 2.32117 0.887695 4.94103V9.6847C0.887695 12.3046 3.13894 14.4284 5.91599 14.4284H10.9443C13.7213 14.4284 15.9726 12.3046 15.9726 9.6847V4.94103C15.9726 2.32117 13.7213 0.197357 10.9443 0.197357H5.91599ZM4.65892 4.94103C4.31179 4.94103 4.03038 5.20651 4.03038 5.53399V7.90583C4.03038 8.8883 4.8746 9.6847 5.91599 9.6847H9.68721C10.0344 9.6847 10.3157 9.41924 10.3157 9.09175V6.71991C10.3157 5.73746 9.47156 4.94103 8.43014 4.94103H4.65892ZM10.9416 6.38469C10.7411 6.60088 10.6306 6.87838 10.6306 7.16561V7.46037C10.6306 7.7476 10.7411 8.02511 10.9416 8.2413L12.0044 9.38701C12.291 9.69606 12.8305 9.50484 12.8305 9.09421V5.53179C12.8305 5.12115 12.291 4.92991 12.0044 5.23895L10.9416 6.38469Z" fill="white"/>
</svg>
