<svg width="19" height="19" viewBox="0 0 19 19" fill="none" xmlns="http://www.w3.org/2000/svg">
<path fill-rule="evenodd" clip-rule="evenodd" d="M1.66923 0.457642C0.943345 0.457642 0.354492 1.02857 0.354492 1.73194V16.973C0.354492 17.6765 0.943414 18.2469 1.66923 18.2469H16.829C17.5552 18.2469 18.1438 17.6764 18.1438 16.9728V1.73194C18.1438 1.02857 17.5552 0.457642 16.829 0.457642H1.66923ZM5.76033 7.33617V15.345H3.09834V7.33617H5.76033ZM5.93579 4.85936C5.93579 5.62792 5.35799 6.2429 4.42989 6.2429L4.41245 6.24283C3.51903 6.24283 2.94143 5.62785 2.94143 4.85929C2.94143 4.0733 3.53647 3.47548 4.44754 3.47548C5.35799 3.47548 5.91842 4.0733 5.93579 4.85936ZM9.89557 15.345H7.23379C7.23379 15.345 7.26867 8.08777 7.23392 7.33645H9.89578V8.47006C10.2496 7.92447 10.8829 7.14841 12.2949 7.14841C14.0462 7.14841 15.3593 8.29311 15.3593 10.753V15.345H12.6976V11.0609C12.6976 9.9842 12.3121 9.24984 11.3492 9.24984C10.6136 9.24984 10.1756 9.74509 9.98327 10.2235C9.91295 10.3943 9.89557 10.6339 9.89557 10.873V15.345Z" fill="white"/>
</svg>
