<svg width="17" height="17" viewBox="0 0 17 17" fill="none" xmlns="http://www.w3.org/2000/svg">
<g clip-path="url(#clip0_77_1933)">
<path d="M12.0029 0.158875H9.25204V11.2771C9.25204 12.6019 8.19405 13.69 6.87742 13.69C5.56078 13.69 4.50277 12.6019 4.50277 11.2771C4.50277 9.97608 5.53727 8.91153 6.8069 8.86424V6.07285C4.00904 6.12015 1.75195 8.41478 1.75195 11.2771C1.75195 14.1632 4.05606 16.4814 6.90094 16.4814C9.74577 16.4814 12.0499 14.1395 12.0499 11.2771V5.57606C13.0844 6.33306 14.354 6.78252 15.6941 6.80619V4.01478C13.6252 3.94382 12.0029 2.24059 12.0029 0.158875Z" fill="white"/>
</g>
<defs>
<clipPath id="clip0_77_1933">
<rect width="16.3226" height="16.3226" fill="white" transform="translate(0.39209 0.158936)"/>
</clipPath>
</defs>
</svg>
