<svg width="17" height="17" viewBox="0 0 17 17" fill="none" xmlns="http://www.w3.org/2000/svg">
<g clip-path="url(#clip0_77_1932)">
<path d="M5.74221 14.9382C11.8947 14.9382 15.2609 9.83962 15.2609 5.41952C15.2609 5.27619 15.2577 5.12967 15.2513 4.98633C15.9061 4.51278 16.4712 3.92623 16.92 3.25422C16.3102 3.52555 15.6627 3.70276 14.9997 3.77978C15.6978 3.36132 16.2205 2.70394 16.4709 1.9295C15.8142 2.31872 15.0959 2.59327 14.347 2.74141C13.8424 2.20524 13.1752 1.85024 12.4486 1.73128C11.722 1.61232 10.9765 1.73603 10.3273 2.08329C9.67802 2.43055 9.16126 2.98202 8.85687 3.65242C8.55248 4.32283 8.47742 5.07484 8.64329 5.79219C7.31347 5.72545 6.01251 5.38 4.82476 4.77823C3.63701 4.17645 2.58898 3.33178 1.74861 2.29898C1.32149 3.03538 1.1908 3.90679 1.38308 4.73609C1.57536 5.56539 2.0762 6.29037 2.7838 6.76367C2.25258 6.74681 1.73299 6.60378 1.26797 6.34641V6.38782C1.26749 7.16062 1.53466 7.90973 2.02405 8.50782C2.51344 9.10592 3.19485 9.51607 3.95245 9.66857C3.46035 9.80321 2.94388 9.82283 2.44299 9.72591C2.65677 10.3905 3.07271 10.9718 3.63276 11.3886C4.19281 11.8055 4.86902 12.0371 5.56703 12.0511C4.38202 12.9819 2.91819 13.4868 1.4113 13.4844C1.14407 13.484 0.877096 13.4676 0.611816 13.4354C2.14265 14.4175 3.92342 14.9391 5.74221 14.9382Z" fill="white"/>
</g>
<defs>
<clipPath id="clip0_77_1932">
<rect width="16.3082" height="16.3082" fill="white" transform="translate(0.611816 0.158936)"/>
</clipPath>
</defs>
</svg>
