<svg width="100" height="100" viewBox="0 0 100 100" fill="none" xmlns="http://www.w3.org/2000/svg">
<path fill-rule="evenodd" clip-rule="evenodd" d="M49.809 99.9996L49.8537 99.9998H49.8383L49.809 99.9996ZM50.1617 99.9998H50.1463L50.191 99.9996L50.1617 99.9998ZM49.6563 99.9988L49.7045 99.999H49.6768L49.6563 99.9988ZM50.3232 99.999H50.2955L50.3438 99.9988L50.3232 99.999ZM49.509 99.9977L49.5412 99.9979L49.5154 99.9977H49.509ZM50.4846 99.9977L50.4588 99.9979L50.491 99.9977H50.4846ZM50.6459 99.9959L50.6346 99.9961L50.6781 99.9955L50.6459 99.9959ZM49.3219 99.9955L49.3654 99.9961L49.3541 99.9959L49.3219 99.9955ZM50.807 99.9936L50.7807 99.9939L50.8344 99.9932L50.807 99.9936ZM49.1656 99.9932L49.2193 99.9939L49.193 99.9936L49.1656 99.9932ZM50.968 99.9908L50.9324 99.9914L50.982 99.9904L50.968 99.9908ZM49.018 99.9904L49.0676 99.9914L49.032 99.9908L49.018 99.9904ZM48.835 99.9867L48.8789 99.9877L48.8711 99.9875L48.835 99.9867ZM51.1289 99.9875L51.1211 99.9877L51.165 99.9867L51.1289 99.9875ZM48.6744 99.9826L48.7348 99.9842L48.7104 99.9836L48.6744 99.9826ZM51.2896 99.9836L51.2652 99.9842L51.3256 99.9826L51.2896 99.9836ZM51.4504 99.9793L51.4111 99.9805L51.4728 99.9787L51.4504 99.9793ZM48.5271 99.9787L48.5889 99.9805L48.5496 99.9793L48.5271 99.9787ZM48.3865 99.9744L48.4305 99.9758L48.3891 99.9744L48.3512 99.9732L48.3865 99.9744ZM51.6109 99.9744L51.5695 99.9758L51.6135 99.9744L51.6488 99.9732L51.6109 99.9744ZM51.7713 99.9691L51.7494 99.9699L51.8168 99.9676L51.7713 99.9691ZM48.1832 99.9676L48.2506 99.9699L48.2287 99.9691L48.1832 99.9676ZM48.0369 99.9621L48.1076 99.9646L48.0684 99.9633L48.0369 99.9621ZM51.9316 99.9633L51.8924 99.9646L51.9631 99.9621L51.9316 99.9633ZM47.8934 99.9563L47.9625 99.9592L47.9084 99.957L47.8934 99.9563ZM52.0916 99.957L52.0375 99.9592L52.1066 99.9563L52.0916 99.957ZM47.6922 99.9475L47.7664 99.9508L47.7482 99.9502L47.6922 99.9475ZM52.2518 99.9502L52.2336 99.9508L52.3078 99.9475L52.2518 99.9502ZM47.5479 99.9408L47.6248 99.9443L47.5885 99.9428L47.5479 99.9408ZM52.4115 99.9428L52.3752 99.9443L52.4521 99.9408L52.4115 99.9428ZM47.4057 99.9336L47.4832 99.9375L47.4287 99.935L47.4057 99.9336ZM52.5713 99.935L52.5168 99.9375L52.5943 99.9336L52.5713 99.935ZM52.7311 99.9266L52.6604 99.9303L52.723 99.927L52.7969 99.9229L52.7311 99.9266ZM47.277 99.927L47.3396 99.9303L47.2689 99.9266L47.2031 99.9229L47.277 99.927ZM52.8904 99.9176L52.8592 99.9193L52.9385 99.9148L52.8904 99.9176ZM47.0615 99.9148L47.1408 99.9193L47.1096 99.9176L47.0615 99.9148ZM46.9205 99.9064L46.9996 99.9111L46.9502 99.9084L46.9205 99.9064ZM53.0498 99.9084L53.0004 99.9111L53.0795 99.9064L53.0498 99.9084ZM46.7859 99.898L46.8572 99.9025L46.7908 99.8984L46.724 99.8941L46.7859 99.898ZM53.2092 99.8984L53.1428 99.9025L53.2141 99.898L53.276 99.8941L53.2092 99.8984ZM53.3682 99.8881L53.3443 99.8896L53.4199 99.8846L53.3682 99.8881ZM46.5801 99.8846L46.6557 99.8896L46.6318 99.8881L46.5801 99.8846ZM46.4393 99.8748L46.5135 99.8801L46.4729 99.8773L46.4393 99.8748ZM53.5271 99.8773L53.4865 99.8801L53.5607 99.8748L53.5271 99.8773ZM46.2988 99.8648L46.367 99.8697L46.3141 99.866L46.2988 99.8648ZM53.6859 99.866L53.633 99.8697L53.7012 99.8648L53.6859 99.866ZM46.11 99.8506L46.1697 99.8551L46.1553 99.8541L46.11 99.8506ZM53.8447 99.8541L53.8303 99.8551L53.89 99.8506L53.8447 99.8541ZM54.0031 99.8418L53.9746 99.8439L54.0354 99.8391L54.0031 99.8418ZM45.9646 99.8391L46.0254 99.8439L45.9969 99.8418L45.9646 99.8391ZM45.823 99.8275L45.8746 99.8318L45.8383 99.8289L45.823 99.8275ZM54.1617 99.8289L54.1254 99.8318L54.177 99.8275L54.1617 99.8289ZM45.6672 99.8145L45.6826 99.8158L45.6801 99.8156L45.6672 99.8145ZM54.3199 99.8156L54.3174 99.8158L54.3328 99.8145L54.3199 99.8156ZM54.4781 99.8018L54.4641 99.8029L54.4994 99.7998L54.4781 99.8018ZM45.5006 99.7998L45.5359 99.8029L45.5219 99.8018L45.5006 99.7998ZM45.3541 99.7865L45.3805 99.7891L45.3641 99.7875L45.3541 99.7865ZM54.6359 99.7875L54.6195 99.7891L54.6459 99.7865L54.6359 99.7875ZM42.1875 99.392C18.2971 95.6369 0 74.9383 0 50C0 22.4043 22.4043 0 50 0C77.5957 0 100 22.4043 100 50C100 74.9383 81.7029 95.6369 57.8125 99.392V64.4531H69.4629L71.6797 50H57.8125V40.6209C57.8125 36.6668 59.7496 32.8125 65.9607 32.8125H72.2656V20.5078C72.2656 20.5078 66.5438 19.5312 61.0732 19.5312C49.6521 19.5312 42.1875 26.4531 42.1875 38.9844V50H29.4922V64.4531H42.1875V99.392Z" fill="white"/>
</svg>
