<svg width="100" height="100" viewBox="0 0 100 100" fill="none" xmlns="http://www.w3.org/2000/svg">
<path opacity="0.92" d="M50 0C22.3852 0 0 22.3852 0 50C0 77.6148 22.3852 100 50 100C77.6148 100 100 77.6148 100 50C100 22.3852 77.6148 0 50 0ZM36.7244 74.0121L26.4374 73.9591C26.4276 73.1564 26.6649 70.1051 26.5955 69.1085C26.5165 67.9983 26.4861 63.6308 26.471 62.5455C26.4601 61.4623 26.3594 56.6237 26.3865 55.274C26.4201 53.4684 26.1698 51.6627 26.1698 49.8581C26.1698 47.24 26.1698 44.2169 26.1698 41.8382C26.1698 41.8382 33.6189 40.9066 36.3269 41.8382L36.4493 43.4857C36.4471 44.3956 36.4818 48.0308 36.5175 48.9179C36.5999 50.9608 36.7916 53.3438 36.7093 55.4062C36.6313 57.4643 36.6887 60.3065 36.7418 62.3234C36.862 66.7613 36.7927 69.8278 36.7244 74.0121ZM27.3733 35.5167C25.8416 34.4107 25.1787 31.9757 25.7008 30.0422C26.6497 26.5446 30.9695 24.7259 34.1497 26.1547C41.8858 29.6328 35.0076 41.0312 27.3733 35.5167ZM74.3674 74.3349L64.3934 74.2277C64.3934 68.1109 64.5006 57.5498 64.2862 55.5004C64.076 53.451 63.2907 51.4926 62.7058 50.9294C61.7309 49.987 59.9957 49.7801 58.711 49.7758C55.2394 49.766 53.0806 52.4025 52.9181 54.4411C52.7578 56.4796 52.747 67.1155 52.865 68.828C52.9473 69.9892 52.9181 73.8301 52.9181 73.8301C49.844 73.8301 47.0905 73.8301 44.0165 73.8301H43.0503C43.0405 70.5806 43.2864 65.1116 43.1033 60.6239C42.9939 57.8748 42.8098 55.0563 42.839 52.3278C42.852 50.8665 42.8022 49.4692 42.839 48.0102C42.8704 46.5587 42.9452 41.7028 42.9452 41.7028C44.8776 41.7309 46.5695 41.6562 48.0373 41.719C49.7368 41.7894 51.0767 41.7103 52.6636 41.8241C52.812 43.0654 52.6603 45.2166 52.812 46.2337C52.812 46.2337 56.6464 41.849 59.1421 41.5197C61.3182 41.2305 63.0784 40.6423 65.2816 41.4103C67.9798 42.3505 70.1462 43.3189 72.1393 45.4831C72.838 46.2413 73.568 47.1534 73.724 48.1846C73.9764 49.8375 73.9764 49.8375 74.0457 50.6293C74.1356 51.6345 74.4725 56.9194 74.4746 58.5518C74.479 60.417 73.7619 73.0243 74.3674 74.3349Z" fill="white"/>
</svg>
