<svg width="100" height="100" viewBox="0 0 100 100" fill="none" xmlns="http://www.w3.org/2000/svg">
<path fill-rule="evenodd" clip-rule="evenodd" d="M50 100C77.6142 100 100 77.6142 100 50C100 22.3858 77.6142 0 50 0C22.3858 0 0 22.3858 0 50C0 77.6142 22.3858 100 50 100ZM65.1015 35.0891C65.4189 35.2958 65.7464 35.4864 66.0828 35.6603C68.2718 36.7516 70.4099 37.0839 71.4628 36.9697V45.468C71.4628 45.468 68.4576 45.3434 66.2272 44.7515C63.1182 43.9197 61.1255 42.6425 61.1255 42.6425C61.1255 42.6425 59.7423 41.7277 59.6385 41.6654V59.2269C59.6385 60.203 59.3799 62.6453 58.6053 64.6816C57.9263 66.4229 56.9557 68.0358 55.7351 69.451C55.7351 69.451 53.8244 71.8196 50.4683 73.4094C47.6709 74.7352 45.1824 74.8078 44.194 74.8366C44.1132 74.839 44.0425 74.841 43.9824 74.8435C43.9824 74.8435 39.3875 75.0283 35.2432 72.2121L35.2225 72.1914V72.2121C33.8213 71.2344 32.5719 70.0556 31.5143 68.7137C30.2028 67.0409 29.398 65.0565 29.1904 64.475V64.4542C28.8601 63.4667 28.1675 61.0773 28.2714 58.771C28.4365 54.7077 29.7999 52.2041 30.1613 51.5811C31.1109 49.8726 32.3513 48.3429 33.8268 47.0609C35.5108 45.6493 37.469 44.602 39.5779 43.985C41.6869 43.368 43.9008 43.1948 46.08 43.4763L46.0696 52.1927C45.3518 51.9588 44.6014 51.84 43.8464 51.8407C39.8579 51.8407 36.6253 55.093 36.6253 59.1095C36.6253 63.1261 39.8579 66.3784 43.8464 66.3784C45.0882 66.38 46.309 66.0579 47.3884 65.4438C48.4241 64.8554 49.2992 64.0215 49.937 63.0155C50.5747 62.0095 50.9554 60.8621 51.0457 59.6744V59.6557C51.0509 59.6308 51.0509 59.6059 51.0509 59.582C51.0519 59.5631 51.0531 59.545 51.0543 59.5274C51.0568 59.491 51.0592 59.4564 51.0592 59.42C51.0779 58.986 51.0779 58.5467 51.0779 58.1023V25H59.6385C59.625 25 59.5357 25.8203 59.7517 27.0882H59.7413C59.9998 28.6157 60.7018 30.7974 62.5813 32.948C63.3325 33.7601 64.1786 34.479 65.1015 35.0891Z" fill="white"/>
</svg>
