<svg width="101" height="100" viewBox="0 0 101 100" fill="none" xmlns="http://www.w3.org/2000/svg">
<path d="M50.1739 0C22.463 0 0 22.3852 0 50C0 77.6148 22.463 100 50.1739 100C77.8848 100 100.348 77.6148 100.348 50C100.348 22.3852 77.8848 0 50.1739 0ZM76.138 36.9898C75.1804 37.8899 73.9859 39.5071 72.7609 40.0141C72.9967 41.1222 72.7598 42.4068 72.537 43.516C72.2826 44.7801 72.487 46.1601 72.0978 47.3819C71.6848 48.6796 71.563 50.0238 71.1272 51.3182C70.6239 52.813 69.7337 54.3739 68.8663 55.6748C68.1163 56.8003 67.6 58.0004 66.8783 59.1161C66.0467 60.3997 64.9011 61.2067 63.9293 62.2877C62.4739 63.906 60.4435 65.248 58.5674 66.5078C57.0152 67.5487 55.2043 68.0015 53.5033 68.7727C52.837 69.0749 52.0293 69.3252 51.3011 69.5126C50.6446 69.6805 49.537 70.0921 48.8315 70.0921L47.562 70.3098C47.0478 70.3564 45.7598 70.2589 45.0924 70.3033C44.4261 70.3455 43.7848 70.1603 43.1022 70.1625C41.4293 70.1657 39.7533 70.1116 38.1065 69.896C35.238 69.5201 31.9315 68.2409 29.5696 66.5598C29.1435 66.2565 28.8196 65.8286 28.3967 65.5188C30.8707 66.0973 33.9913 66.0052 36.3478 64.9556C37.6543 64.3728 39.137 64.115 40.3098 63.2918C41.2109 62.6571 42.2652 61.9746 43.1826 61.4601C41.0652 61.263 39.1109 60.6477 37.188 59.635C36.2402 59.1367 33.7348 56.3821 33.7457 54.284C35.2163 54.2569 36.5413 54.4541 38.0326 54.2569C36.9804 53.9785 36.1054 53.5214 35.1424 52.8824C34.0576 52.1642 33.1489 51.6313 32.0261 50.4094C30.7065 48.9753 30.2804 46.2197 30.4293 44.2288C31.1098 44.2959 31.6783 44.7281 32.3391 44.9253C33.0228 45.1278 33.8326 45.0996 34.4837 45.4203C32.3185 44.7184 31.2043 41.2738 30.6457 39.3533C29.9946 37.1187 31.3761 32.057 31.4217 31.9259C33.1098 33.2041 34.3467 35.1311 36.0446 36.2966C37.0272 36.9703 38.1446 37.7156 39.0956 38.385C39.5783 38.724 39.9435 38.8821 40.4337 39.2461C40.8609 39.5613 41.513 39.7866 41.988 40C43.2109 40.5481 44.7359 41.1471 46.0793 41.3919C47.6565 41.68 49.325 41.7428 50.8065 42.2519L52.5707 42.4621C52.0815 40.5373 52.3489 37.9744 52.9402 35.9965C53.6239 33.711 55.9609 31.7591 58.0565 30.7734C60.0109 29.8538 63.2326 29.4422 65.2696 30.2253C66.312 30.6261 67.3902 31.0994 68.3587 31.6367C69.262 32.1382 69.7044 33.294 70.7011 33.1662C72.4554 32.9398 75.1446 31.8577 76.2076 30.3228C76.1641 33.0275 74.5641 34.6198 72.5402 36.2608C74.1957 35.7788 76.1652 35.6402 77.7467 34.9448C77.3228 35.7929 76.8337 36.3377 76.138 36.9898Z" fill="white"/>
</svg>
