<svg width="100" height="100" viewBox="0 0 100 100" fill="none" xmlns="http://www.w3.org/2000/svg">
<path d="M50 0C22.3858 0 0 22.3858 0 50C0 77.6183 22.3858 100 50 100C77.6142 100 99.9959 77.6183 99.9959 50C99.9959 22.3858 77.6122 0 50 0ZM78.9604 37.6873C75.6203 56.5056 56.9624 72.4345 51.3503 76.0751C45.734 79.7076 40.6152 74.6112 38.7594 70.7614C36.6335 66.3675 30.2619 42.5462 28.5949 40.5706C26.9259 38.5949 21.9208 42.5462 21.9208 42.5462L19.4944 39.3584C19.4944 39.3584 29.6589 27.2223 37.3929 25.6995C45.5939 24.0975 45.5817 38.2964 47.5574 46.1827C49.464 53.8132 50.7452 58.1706 52.4122 58.1706C54.0812 58.1706 57.267 53.9228 60.7553 47.399C64.2497 40.8711 60.6051 35.1046 53.7746 39.2061C56.5076 22.8223 82.3005 18.8812 78.9604 37.6873Z" fill="white"/>
</svg>
