<svg width="100" height="100" viewBox="0 0 100 100" fill="none" xmlns="http://www.w3.org/2000/svg">
<path d="M50.9442 44.0911C50.0506 43.5766 49.144 43.1 48.2991 42.5053C47.49 41.9367 46.787 41.368 45.9724 40.8134C45.5381 40.5177 44.5838 40.2274 44.5838 39.9436C44.5838 40.3617 44.5838 42.0385 44.5838 42.2703C44.5838 43.6124 44.4819 50.5166 44.4971 51.3821C44.5188 52.8303 44.4061 54.2785 44.4592 55.7267C44.509 57.1078 44.5177 58.4271 44.47 59.8699C44.47 59.8699 47.92 58.1943 48.3803 57.905C50.1503 56.7904 51.8845 55.5805 53.6977 54.545C54.5892 54.0359 55.511 53.5853 56.3624 53.0101C57.1358 52.4848 60.1329 49.9642 60.2369 50.0281C58.8526 49.1821 57.5105 48.2972 56.0677 47.5487C54.222 46.5911 52.7423 45.1256 50.9442 44.0911Z" fill="white"/>
<path d="M50 0C22.3852 0 0 22.3852 0 50C0 77.6148 22.3852 100 50 100C77.6148 100 100 77.6148 100 50C100 22.3852 77.6148 0 50 0ZM77.4632 60.847C76.9465 63.2799 76.2955 65.8243 74.6274 67.7459C72.8174 69.8278 69.6999 69.2797 67.2097 69.4595C61.1558 69.8971 55.1148 69.4876 49.0565 69.6469C46.5663 69.713 44.1107 69.6555 41.6269 69.5321C39.1551 69.4086 36.5695 69.6729 34.0988 69.4736C32.5996 69.3512 31.0908 69.3479 29.597 69.1638C28.399 69.0165 26.588 68.8421 25.6813 67.9365C25.2405 67.4967 25.0964 66.8132 24.714 66.2998L24.1627 65.338C21.7894 60.2773 21.8371 54.7054 21.8273 49.1768C21.8219 47.123 22.0711 45.0802 22.0158 43.0243C21.9801 41.6974 22.5823 40.4409 22.6646 39.1053C22.7491 37.7665 23.0015 36.4764 23.6493 35.3141C24.9101 33.0535 25.5481 31.992 27.891 31.0334C29.0641 30.5524 31.25 30.4181 32.5065 30.4419C34.0024 30.4679 35.5015 30.4614 36.9952 30.4441C40.0325 30.4073 43.0654 30.3174 46.1016 30.3271C48.7424 30.3347 51.4168 30.3477 54.0511 30.5123C56.6887 30.6748 59.3371 30.4224 61.9822 30.4896C64.1616 30.5448 66.3453 30.5405 68.5204 30.7008C70.1484 30.8211 72.0461 31.0193 73.4608 31.9237C74.31 32.4664 75.2545 33.1911 75.6369 34.0815C76.7483 36.6692 77.6733 39.2894 77.8293 42.1209C77.9896 45.0217 78.0264 47.9268 78.1055 50.8297C78.1196 51.3301 78.1347 51.8317 78.151 52.3321C78.2474 55.1776 78.0513 58.06 77.4632 60.847Z" fill="white"/>
</svg>
