<svg width="18" height="13" viewBox="0 0 18 13" fill="none" xmlns="http://www.w3.org/2000/svg">
<path fill-rule="evenodd" clip-rule="evenodd" d="M15.6176 0.840783C16.3326 1.03386 16.8945 1.59724 17.0845 2.31138C17.4301 3.60741 17.4301 6.3132 17.4301 6.3132C17.4301 6.3132 17.4301 9.01899 17.0845 10.315C16.8919 11.0318 16.3299 11.5952 15.6176 11.7856C14.3249 12.1321 9.13813 12.1321 9.13813 12.1321C9.13813 12.1321 3.95402 12.1321 2.65865 11.7856C1.94369 11.5925 1.38175 11.0292 1.1918 10.315C0.846191 9.01899 0.846191 6.3132 0.846191 6.3132C0.846191 6.3132 0.846191 3.60741 1.1918 2.31138C1.38439 1.5946 1.94633 1.03122 2.65865 0.840783C3.95402 0.494293 9.13813 0.494293 9.13813 0.494293C9.13813 0.494293 14.3249 0.494293 15.6176 0.840783ZM11.7896 6.3132L7.48133 8.80739V3.81901L11.7896 6.3132Z" fill="white"/>
</svg>
