<svg width="17" height="17" viewBox="0 0 17 17" fill="none" xmlns="http://www.w3.org/2000/svg">
<path d="M5.65065 8.4016C5.65065 6.93921 6.83653 5.7534 8.2998 5.7534C9.76306 5.7534 10.9496 6.93921 10.9496 8.4016C10.9496 9.86399 9.76306 11.0498 8.2998 11.0498C6.83653 11.0498 5.65065 9.86399 5.65065 8.4016ZM4.21822 8.4016C4.21822 10.6545 6.04554 12.4807 8.2998 12.4807C10.5541 12.4807 12.3814 10.6545 12.3814 8.4016C12.3814 6.14869 10.5541 4.32247 8.2998 4.32247C6.04554 4.32247 4.21822 6.14869 4.21822 8.4016ZM11.5891 4.16073C11.589 4.34927 11.6449 4.5336 11.7496 4.69041C11.8544 4.84722 12.0033 4.96946 12.1776 5.04168C12.3518 5.1139 12.5436 5.13286 12.7287 5.09615C12.9137 5.05944 13.0837 4.96872 13.2172 4.83545C13.3506 4.70219 13.4415 4.53237 13.4784 4.34746C13.5153 4.16256 13.4965 3.97088 13.4243 3.79666C13.3522 3.62245 13.23 3.47352 13.0732 3.36871C12.9164 3.2639 12.732 3.20792 12.5433 3.20784H12.543C12.2901 3.20796 12.0476 3.30838 11.8687 3.48704C11.6899 3.66571 11.5893 3.90801 11.5891 4.16073ZM5.08851 14.8678C4.31355 14.8325 3.89233 14.7035 3.6124 14.5945C3.24129 14.4501 2.97651 14.2782 2.69811 14.0003C2.41971 13.7225 2.24739 13.4581 2.10355 13.0872C1.99443 12.8076 1.86534 12.3865 1.83011 11.612C1.79157 10.7746 1.78388 10.5231 1.78388 8.40166C1.78388 6.28025 1.79221 6.02941 1.83011 5.19135C1.8654 4.41685 1.99544 3.99658 2.10355 3.71613C2.24802 3.34524 2.4201 3.08061 2.69811 2.80238C2.97612 2.52415 3.24066 2.35193 3.6124 2.20817C3.8922 2.09912 4.31355 1.97011 5.08851 1.9349C5.92637 1.89639 6.17806 1.8887 8.2998 1.8887C10.4215 1.8887 10.6735 1.89702 11.512 1.9349C12.287 1.97017 12.7075 2.10013 12.9881 2.20817C13.3593 2.35193 13.624 2.52453 13.9024 2.80238C14.1808 3.08023 14.3525 3.34524 14.497 3.71613C14.6061 3.99575 14.7352 4.41685 14.7704 5.19135C14.809 6.02941 14.8167 6.28025 14.8167 8.40166C14.8167 10.5231 14.809 10.7739 14.7704 11.612C14.7352 12.3865 14.6054 12.8074 14.497 13.0872C14.3525 13.4581 14.1805 13.7227 13.9024 14.0003C13.6244 14.2779 13.3593 14.4501 12.9881 14.5945C12.7084 14.7036 12.287 14.8326 11.512 14.8678C10.6742 14.9063 10.4225 14.914 8.2998 14.914C6.17711 14.914 5.92612 14.9063 5.08851 14.8678ZM5.0227 0.50575C4.17651 0.544263 3.59829 0.678357 3.09332 0.874731C2.57036 1.07752 2.12765 1.34959 1.68525 1.79102C1.24286 2.23245 0.971329 2.67559 0.768414 3.19824C0.571922 3.70323 0.437747 4.28078 0.399212 5.12646C0.36004 5.97348 0.351074 6.24428 0.351074 8.4016C0.351074 10.5589 0.36004 10.8297 0.399212 11.6767C0.437747 12.5225 0.571922 13.1 0.768414 13.605C0.971329 14.1273 1.24292 14.5709 1.68525 15.0122C2.12758 15.4534 2.57036 15.7251 3.09332 15.9285C3.59924 16.1248 4.17651 16.2589 5.0227 16.2974C5.87067 16.336 6.14118 16.3456 8.2998 16.3456C10.4584 16.3456 10.7294 16.3366 11.5769 16.2974C12.4232 16.2589 13.001 16.1248 13.5063 15.9285C14.0289 15.7251 14.472 15.4536 14.9143 15.0122C15.3567 14.5708 15.6277 14.1273 15.8312 13.605C16.0277 13.1 16.1625 12.5224 16.2004 11.6767C16.2389 10.8291 16.2479 10.5589 16.2479 8.4016C16.2479 6.24428 16.2389 5.97348 16.2004 5.12646C16.1618 4.28072 16.0277 3.70291 15.8312 3.19824C15.6277 2.67591 15.356 2.23315 14.9143 1.79102C14.4727 1.34889 14.0289 1.07752 13.5069 0.874731C13.001 0.678357 12.4231 0.543627 11.5775 0.50575C10.73 0.467238 10.4591 0.457642 8.30043 0.457642C6.14182 0.457642 5.87067 0.466602 5.0227 0.50575Z" fill="white"/>
</svg>
